HIERARCHY
ROOT Hips
{
  OFFSET 0.000000 0.000000 0.000000
  CHANNELS 6 Xposition Yposition Zposition Xrotation Yrotation Zrotation
  JOINT Spine
  {
    OFFSET 0.000000 10.000000 0.000000
    CHANNELS 3 Xrotation Yrotation Zrotation
    JOINT Chest
    {
      OFFSET 0.000000 15.000000 0.000000
      CHANNELS 3 Xrotation Yrotation Zrotation
      JOINT Neck
      {
        OFFSET 0.000000 15.000000 0.000000
        CHANNELS 3 Xrotation Yrotation Zrotation
        JOINT Head
        {
          OFFSET 0.000000 10.000000 0.000000
          CHANNELS 3 Xrotation Yrotation Zrotation
          End Site
          {
            OFFSET 0.0 5.0 2.0
          }
        }
      }
      JOINT LeftShoulder
      {
        OFFSET 20.000000 5.000000 0.000000
        CHANNELS 3 Xrotation Yrotation Zrotation
        JOINT LeftArm
        {
          OFFSET 15.000000 0.000000 0.000000
          CHANNELS 3 Xrotation Yrotation Zrotation
          JOINT LeftForeArm
          {
            OFFSET 25.000000 0.000000 0.000000
            CHANNELS 3 Xrotation Yrotation Zrotation
            JOINT LeftHand
            {
              OFFSET 20.000000 0.000000 0.000000
              CHANNELS 3 Xrotation Yrotation Zrotation
              End Site
              {
                OFFSET -3.0 0.0 2.0
              }
            }
          }
        }
      }
      JOINT RightShoulder
      {
        OFFSET -20.000000 5.000000 0.000000
        CHANNELS 3 Xrotation Yrotation Zrotation
        JOINT RightArm
        {
          OFFSET -15.000000 0.000000 0.000000
          CHANNELS 3 Xrotation Yrotation Zrotation
          JOINT RightForeArm
          {
            OFFSET -25.000000 0.000000 0.000000
            CHANNELS 3 Xrotation Yrotation Zrotation
            JOINT RightHand
            {
              OFFSET -20.000000 0.000000 0.000000
              CHANNELS 3 Xrotation Yrotation Zrotation
              End Site
              {
                OFFSET 3.0 0.0 2.0
              }
            }
          }
        }
      }
    }
  }
  JOINT LeftUpLeg
  {
    OFFSET 10.000000 -10.000000 0.000000
    CHANNELS 3 Xrotation Yrotation Zrotation
    JOINT LeftLeg
    {
      OFFSET 0.000000 -45.000000 0.000000
      CHANNELS 3 Xrotation Yrotation Zrotation
      JOINT LeftFoot
      {
        OFFSET 0.000000 -45.000000 0.000000
        CHANNELS 3 Xrotation Yrotation Zrotation
        JOINT LeftToeBase
        {
          OFFSET 0.000000 0.000000 10.000000
          CHANNELS 3 Xrotation Yrotation Zrotation
          End Site
          {
            OFFSET 0.0 -1.0 3.0
          }
        }
      }
    }
  }
  JOINT RightUpLeg
  {
    OFFSET -10.000000 -10.000000 0.000000
    CHANNELS 3 Xrotation Yrotation Zrotation
    JOINT RightLeg
    {
      OFFSET 0.000000 -45.000000 0.000000
      CHANNELS 3 Xrotation Yrotation Zrotation
      JOINT RightFoot
      {
        OFFSET 0.000000 -45.000000 0.000000
        CHANNELS 3 Xrotation Yrotation Zrotation
        JOINT RightToeBase
        {
          OFFSET 0.000000 0.000000 10.000000
          CHANNELS 3 Xrotation Yrotation Zrotation
          End Site
          {
            OFFSET 0.0 -1.0 3.0
          }
        }
      }
    }
  }
}
MOTION
Frames: 18
Frame Time: 0.033333
-3.542176 0.474817 -6.066514 -83.403578 33.358865 -52.826686 0.610279 0.011707 -1.652223 31.273232 65.287922 19.095478 -36.913588 19.495159 54.519756 0.000000 0.000000 0.000000 -55.731080 47.590601 -100.365172 20.593817 7.172813 145.078795 0.330423 0.184305 118.274947 0.000000 0.000000 0.000000 -15.074472 -21.139796 70.720846 31.179717 -56.730402 -54.649845 41.776952 -34.885789 -101.074160 0.000000 0.000000 0.000000 9.416535 2.426164 -28.827909 -2.867932 -0.201570 -8.062153 38.168430 -80.367333 -32.458605 0.000000 0.000000 0.000000 -11.698760 1.047566 10.203929 -19.650505 2.620882 15.047434 84.022671 -73.595162 -68.737478 0.000000 0.000000 0.000000
-4.888692 0.478473 -8.343982 -83.955803 33.881312 -52.604533 1.313264 0.024475 -1.814856 32.841863 66.512331 20.219909 -36.152331 19.275869 55.024973 0.000000 0.000000 0.000000 -56.522861 44.126889 -106.187172 -5.691484 -3.969194 143.319066 -7.273390 -5.141593 116.311219 0.000000 0.000000 0.000000 -14.731559 -21.249175 69.107252 31.142280 -56.540991 -54.771975 41.595137 -34.309184 -101.822285 0.000000 0.000000 0.000000 9.237289 2.372607 -28.747349 -3.616838 -0.231698 -7.670381 43.355147 -81.421376 -38.211900 0.000000 0.000000 0.000000 -11.649563 1.035680 10.134421 -19.979323 2.687051 15.162311 82.453144 -73.649605 -67.234393 0.000000 0.000000 0.000000
-6.221281 0.482052 -10.762175 -85.181833 34.768685 -52.419273 1.842734 0.036332 -2.068632 34.812223 68.307183 21.376788 -35.106111 18.941250 55.666060 0.000000 0.000000 0.000000 -57.440777 40.286102 -112.677751 -31.605951 -15.220107 141.178885 -14.416773 -10.203303 114.140417 0.000000 0.000000 0.000000 -14.104303 -21.126969 66.953410 30.845727 -56.269487 -54.559963 41.461655 -33.723303 -102.657045 0.000000 0.000000 0.000000 8.890472 2.280350 -28.721052 -4.888986 -0.274967 -7.057777 52.170619 -82.517455 -47.355119 0.000000 0.000000 0.000000 -11.669296 1.021234 9.981445 -20.370907 2.763165 15.283001 84.256886 -73.389690 -68.591938 0.000000 0.000000 0.000000
-7.896724 0.486301 -14.104308 -87.065961 36.072360 -52.209003 2.380010 0.050430 -2.423752 37.291022 70.723504 22.675073 -33.779161 18.486893 56.415212 0.000000 0.000000 0.000000 -58.136317 35.339281 -120.618695 -60.890606 -28.485344 138.259106 -22.461109 -16.072602 111.205425 0.000000 0.000000 0.000000 -13.232668 -20.868015 64.185917 30.296526 -55.929978 -54.010144 41.411870 -33.134312 -103.615115 0.000000 0.000000 0.000000 8.388407 2.155000 -28.790928 -6.486108 -0.307822 -5.995100 66.142033 -83.709975 -61.466008 0.000000 0.000000 0.000000 -11.754617 1.005407 9.759236 -20.830972 2.859876 15.461924 88.379789 -72.646755 -71.622723 0.000000 0.000000 0.000000
-8.969706 0.488502 -16.770709 -89.121132 37.385523 -52.110441 2.428948 0.058471 -2.773834 39.215425 72.855227 23.415293 -32.927357 18.150620 56.800343 0.000000 0.000000 0.000000 -57.981317 31.430602 -126.306985 -75.378279 -36.071362 135.740554 -25.720101 -18.831687 108.715018 0.000000 0.000000 0.000000 -12.298752 -20.283199 61.968764 29.283704 -55.459032 -52.825706 41.283365 -32.812709 -103.987208 0.000000 0.000000 0.000000 7.937317 2.061992 -29.110572 -7.768287 -0.298520 -4.672328 80.413310 -84.205011 -75.212364 0.000000 0.000000 0.000000 -11.869747 0.988340 9.494935 -20.950116 2.910030 15.647891 92.659081 -71.303151 -74.330578 0.000000 0.000000 0.000000
-9.817773 0.489432 -19.206280 -91.161602 38.653093 -52.085122 2.398430 0.065659 -3.145808 40.747451 74.532545 23.943999 -32.465043 17.973722 57.035308 0.000000 0.000000 0.000000 -55.239897 28.371242 -128.394747 -82.523683 -40.505326 134.486034 -28.185945 -20.571687 108.144927 0.000000 0.000000 0.000000 -11.369089 -19.253557 60.803762 27.322312 -54.575282 -50.292171 41.202132 -32.985877 -103.557883 0.000000 0.000000 0.000000 7.597869 2.016900 -29.709784 -8.405664 -0.229729 -3.068633 88.474970 -84.042038 -82.554165 0.000000 0.000000 0.000000 -11.919272 0.961530 9.186354 -20.577022 2.890709 15.839779 91.096286 -69.821265 -71.487413 0.000000 0.000000 0.000000
-10.826007 0.490369 -22.119884 -92.619255 39.600580 -52.054608 2.425150 0.074709 -3.518243 41.578990 75.380591 24.249900 -32.086192 17.868214 57.333154 0.000000 0.000000 0.000000 -51.203315 27.002390 -126.609124 -83.879089 -40.634397 135.307677 -28.493370 -20.291358 109.431953 0.000000 0.000000 0.000000 -10.793604 -18.242525 61.011854 24.909800 -53.888398 -46.701842 41.158678 -33.636426 -102.342493 0.000000 0.000000 0.000000 7.593880 2.087975 -30.646952 -7.995355 -0.110998 -1.279287 87.522386 -83.410918 -80.992783 0.000000 0.000000 0.000000 -11.773998 0.921639 8.912262 -19.707859 2.831266 16.229228 83.519317 -68.373674 -63.129867 0.000000 0.000000 0.000000
-11.886864 0.491601 -25.246708 -93.611117 40.298765 -51.992988 2.558033 0.086303 -3.849303 41.880121 75.671305 24.370946 -31.847488 17.772067 57.447808 0.000000 0.000000 0.000000 -47.285340 25.875689 -124.389262 -86.495362 -40.742990 136.988665 -29.519428 -20.462707 110.982716 0.000000 0.000000 0.000000 -10.537665 -17.471270 61.989936 22.427584 -53.350882 -42.860179 40.936661 -34.248337 -100.936603 0.000000 0.000000 0.000000 7.898807 2.269046 -31.879837 -7.128605 0.018074 0.712619 86.274144 -82.767786 -79.119152 0.000000 0.000000 0.000000 -11.588111 0.876939 8.617320 -18.774883 2.812771 16.952714 77.070891 -66.767075 -55.735591 0.000000 0.000000 0.000000
-12.914535 0.493399 -28.292787 -94.242210 40.770375 -51.929077 2.676784 0.096513 -4.116060 41.600239 75.542098 24.140617 -31.427039 17.557325 57.523220 0.000000 0.000000 0.000000 -44.450931 26.044704 -120.875944 -88.676789 -39.191827 139.981411 -30.315997 -20.160446 113.344157 0.000000 0.000000 0.000000 -10.659967 -17.157393 63.411552 20.621145 -53.460302 -39.673472 40.797903 -34.824903 -99.727243 0.000000 0.000000 0.000000 8.289926 2.475740 -33.082543 -6.329684 0.126202 2.734417 85.461841 -82.081411 -77.620788 0.000000 0.000000 0.000000 -11.352760 0.832297 8.353227 -17.833583 2.855815 18.149311 72.801752 -64.752900 -50.155969 0.000000 0.000000 0.000000
-14.010886 0.496052 -31.431294 -94.282029 40.902437 -51.825407 2.783693 0.105038 -4.313650 40.785827 75.009740 23.595968 -30.865785 17.255705 57.583609 0.000000 0.000000 0.000000 -43.034183 27.024444 -117.363156 -90.206008 -36.850937 143.278611 -30.832899 -19.697263 115.614426 0.000000 0.000000 0.000000 -11.206925 -17.484448 64.945803 20.009726 -54.266912 -37.992501 40.938146 -35.392350 -98.952345 0.000000 0.000000 0.000000 8.716514 2.677224 -34.023719 -5.642934 0.212896 4.591209 87.673061 -81.392306 -79.119269 0.000000 0.000000 0.000000 -10.996598 0.784390 8.124025 -16.986857 2.974881 19.869474 72.018247 -61.790640 -47.115549 0.000000 0.000000 0.000000
-15.287790 0.500354 -34.808508 -93.624098 40.674487 -51.633777 2.919328 0.111280 -4.365346 39.809630 74.169567 23.110674 -30.410808 16.961229 57.495501 0.000000 0.000000 0.000000 -43.626997 28.701450 -114.846620 -90.650817 -34.141443 146.131199 -30.386350 -18.740315 117.398719 0.000000 0.000000 0.000000 -11.913440 -18.302943 65.814528 20.918407 -55.431174 -38.674032 41.007362 -35.453628 -98.955983 0.000000 0.000000 0.000000 9.342549 2.923606 -34.646646 -4.744623 0.241382 6.081618 92.445611 -80.709716 -83.188721 0.000000 0.000000 0.000000 -10.539735 0.723200 7.794344 -16.310573 3.160469 21.926856 71.646620 -58.216192 -43.871382 0.000000 0.000000 0.000000
-16.259560 0.504693 -37.196940 -92.846645 40.404007 -51.408028 3.009009 0.115133 -4.386318 39.657596 73.670961 23.335494 -29.611684 16.522976 57.570115 0.000000 0.000000 0.000000 -48.762624 33.056691 -113.856828 -83.230568 -29.198199 150.055517 -26.848919 -16.135467 119.497379 0.000000 0.000000 0.000000 -9.987787 -15.060026 65.013797 18.831500 -48.502791 -39.728399 38.533369 -33.405718 -98.483650 0.000000 0.000000 0.000000 10.054756 3.163710 -34.837334 -3.450733 0.201422 6.979948 91.938820 -79.110083 -81.452787 0.000000 0.000000 0.000000 -10.149877 0.655454 7.336011 -15.683641 3.342535 24.031960 72.585354 -55.116727 -41.957069 0.000000 0.000000 0.000000
-16.724570 0.508406 -38.363967 -91.108610 39.580128 -51.147221 3.000292 0.117773 -4.522841 38.632144 72.642320 22.809223 -28.698438 16.072378 57.807409 0.000000 0.000000 0.000000 -59.516797 40.173178 -115.101117 -51.389550 -19.746283 155.292880 -15.299430 -9.786313 123.020481 0.000000 0.000000 0.000000 -7.289890 -11.136673 61.851698 15.868030 -40.396223 -40.016133 39.490693 -34.075476 -98.563556 0.000000 0.000000 0.000000 11.066113 3.438517 -34.505329 -1.647549 0.116925 6.835782 86.112845 -76.957725 -74.226215 0.000000 0.000000 0.000000 -9.950230 0.619583 7.088482 -15.695108 3.686346 26.188120 75.509558 -52.810104 -42.095255 0.000000 0.000000 0.000000
-16.087688 0.509949 -37.563038 -87.441252 37.680435 -50.862247 2.775004 0.113576 -4.804467 36.122766 70.234360 21.298687 -28.067340 15.733826 57.888217 0.000000 0.000000 0.000000 -76.635746 50.028314 -119.416311 -38.604915 -7.359574 114.580530 8.844928 -0.393976 130.098857 0.000000 0.000000 0.000000 -5.257308 -9.227530 57.044420 13.604921 -34.993807 -39.771231 44.027638 -37.072259 -99.773587 0.000000 0.000000 0.000000 12.652252 3.802303 -33.613916 0.889086 0.024495 5.597416 73.721524 -73.906762 -60.711950 0.000000 0.000000 0.000000 -10.491068 0.701783 7.448858 -16.838573 4.252412 27.913148 79.500219 -51.211353 -43.523366 0.000000 0.000000 0.000000
-15.034565 0.508199 -35.884925 -82.139763 34.874784 -50.603079 2.359371 0.104158 -5.321346 32.308283 66.639800 18.872609 -28.023099 15.574495 57.490882 0.000000 0.000000 0.000000 -99.996589 59.413983 -128.936065 -19.974888 3.179677 86.153457 35.887706 7.953138 140.392162 0.000000 0.000000 0.000000 -4.094811 -9.225963 50.092006 11.533346 -31.407720 -37.905002 48.425556 -40.810725 -99.866657 0.000000 0.000000 0.000000 14.621171 4.032616 -31.334347 3.772933 -0.000292 3.346105 59.698351 -69.574886 -45.373835 0.000000 0.000000 0.000000 -11.994999 0.940292 8.473628 -19.074603 4.987365 28.912907 83.209509 -49.496584 -44.511671 0.000000 0.000000 0.000000
-13.244603 0.513947 -32.897027 -74.117678 30.448179 -51.004718 1.471456 0.063825 -6.252474 27.394647 61.636022 15.593807 -28.886895 15.539133 55.974651 0.000000 0.000000 0.000000 -98.300064 67.695478 -114.152651 2.671200 10.227572 73.692569 64.614031 13.210816 152.241134 0.000000 0.000000 0.000000 -4.458359 -12.484252 43.207639 10.427265 -32.240888 -34.449391 52.597931 -44.913871 -99.382427 0.000000 0.000000 0.000000 15.322114 3.831786 -28.040411 4.692759 0.019276 1.316800 47.053208 -62.016565 -30.877011 0.000000 0.000000 0.000000 -12.294713 1.057656 9.177621 -19.680432 4.716419 24.281161 77.029291 -45.144107 -39.425027 0.000000 0.000000 0.000000
-10.971035 0.526176 -29.203419 -64.763755 25.274613 -52.009228 0.609219 0.020848 -7.444822 22.526482 56.081228 12.357883 -31.843898 15.172722 51.125923 0.000000 0.000000 0.000000 -74.447641 70.830098 -80.599796 24.330420 11.127281 89.756179 77.590532 13.075380 162.184113 0.000000 0.000000 0.000000 -5.942743 -17.545650 37.249702 10.221600 -35.004636 -30.041522 53.249167 -48.306307 -95.565850 0.000000 0.000000 0.000000 14.748584 3.280358 -24.217096 3.809115 0.056655 0.225891 42.436658 -53.095568 -23.024268 0.000000 0.000000 0.000000 -11.001487 0.983555 8.954514 -18.253791 3.620702 15.828685 64.895902 -38.946707 -30.213206 0.000000 0.000000 0.000000
-8.016284 0.534442 -24.224112 -55.243408 19.706817 -54.820678 -0.141489 -0.029305 -9.188736 18.651005 50.719852 9.404795 -37.685545 14.435444 43.390917 0.000000 0.000000 0.000000 -38.372200 71.777087 -37.449733 43.425939 11.292902 120.564780 75.522238 10.751565 165.833138 0.000000 0.000000 0.000000 -5.588206 -18.295756 32.874766 7.719597 -30.723610 -25.424719 47.429739 -47.811811 -88.484728 0.000000 0.000000 0.000000 13.256026 2.485955 -20.041109 1.512811 0.061143 -0.005858 41.249317 -45.207655 -18.037095 0.000000 0.000000 0.000000 -7.812954 0.814514 -1.466098 -17.628234 2.577358 8.869500 54.180562 -31.966359 -20.386894 0.000000 0.000000 0.000000
